<svg width="30" height="auto" viewBox="0 0 458 458">
	<path fill="#585858" d="m428 41.533h-398c-16.568 0-30 13.431-30 30v252c0 16.568 13.432 30 30 30h132.1l43.942 52.243c5.7 6.777 14.103 10.69 22.959 10.69s17.259-3.912 22.959-10.69l43.942-52.243h132.1c16.569 0 30-13.432 30-30v-252c0-16.568-13.431-30-30-30zm0 282h-146.07l-52.932 62.932-52.932-62.932h-146.07v-252h398v252z"/>
	<path fill="#c11b17" d="m83.379 144.9h292.24c8.284 0 15-6.716 15-15s-6.716-15-15-15h-292.24c-8.284 0-15 6.716-15 15s6.716 15 15 15z"/>
	<path fill="#214fc6" d="m83.379 212.68h182.9c8.284 0 15-6.716 15-15s-6.716-15-15-15h-182.9c-8.284 0-15 6.716-15 15s6.716 15 15 15z"/>
	<path fill="#006E33" d="m83.379 280.46h244.62c8.284 0 15-6.716 15-15s-6.716-15-15-15h-244.62c-8.284 0-15 6.716-15 15s6.716 15 15 15z"/>
</svg>