<svg version="1.1" xmlns="http://www.w3.org/2000/svg" xmlns:xlink="http://www.w3.org/1999/xlink" x="0px" y="0px" viewBox="0 0 1000 1000" enable-background="new 0 0 1000 1000" xml:space="preserve">
<g><path d="M737.5,335.3c29.1,0,52.6,23.5,52.6,52.6c0,29.1-23.5,52.6-52.6,52.6s-52.6-23.5-52.6-52.6C684.9,358.7,708.4,335.3,737.5,335.3L737.5,335.3z M596.7,335.3c29.1,0,52.6,23.5,52.6,52.6c0,29.1-23.5,52.6-52.6,52.6c-29.1,0-52.6-23.5-52.6-52.6C544.1,358.7,567.6,335.3,596.7,335.3L596.7,335.3z M455.9,335.3c29.1,0,52.6,23.5,52.6,52.6c0,29.1-23.5,52.6-52.6,52.6c-29.1,0-52.6-23.5-52.6-52.6C403.3,358.7,426.8,335.3,455.9,335.3L455.9,335.3z M913,392.5c0-114.5-83.5-207.5-186.8-207.5H467.1c-102.3,0-187.7,92.9-187.7,207.5v3.8c0,114.5,85.4,207.5,187.7,207.5h66.6c6.6,0,13.1,1.9,20.7,6.6l133.3,87.3v-55.4c0-21.6,16.9-38.5,38.5-38.5c103.3,0,186.8-92.9,186.8-207.5V392.5z M726.2,108.1c145.5,0,263.8,127.7,263.8,284.4v3.8c0,139.9-97.6,261.9-225.3,281.6V768c0,14.1-8.4,27.2-20.7,33.8c-6.6,2.8-12.2,4.7-17.8,4.7c-8.4,0-16-1.9-20.7-6.6l-146.4-95.7c6.6,7.5,9.4,16,9.4,25.3c0,21.6-16.9,37.5-38.5,37.5h-55.4L293.5,885.3c-7.5,4.7-15,6.6-21.6,6.6c-5.6,0-11.3-1.9-17.8-4.7c-13.1-8.4-19.7-19.7-19.7-33.8v-89.2C106.7,744.5,10,625.3,10,484.5v-3.8c0-115.5,62.9-215.9,161.5-261c19.7-8.4,42.2,0.9,50.7,19.7c4.7,9.4,4.7,18.8,0.9,29.1c-3.8,10.3-10.3,16.9-19.7,20.7C132,322.1,86,395.3,86,480.8v3.8C86,597.2,169.6,691,271.9,691c21.6,0,38.5,16.9,38.5,38.5V784l132.4-86.4c6.6-4.7,13.1-6.6,20.7-6.6H530c2.8,0,6.6,0.9,11.3,1.9l-18.8-12.2h-55.4c-145.5,0-263.8-127.7-263.8-284.4v-3.8c0-156.8,118.3-284.4,263.8-284.4L726.2,108.1L726.2,108.1z"/></g>
</svg>