
<svg version="1.1" xmlns="http://www.w3.org/2000/svg" xmlns:xlink="http://www.w3.org/1999/xlink" x="0px" y="0px" viewBox="0 0 1000 1000" enable-background="new 0 0 1000 1000" xml:space="preserve">
<g><path d="M826.7,10H173.3C83.3,10,10,83.3,10,173.3v490c0,90.1,73.3,163.3,163.3,163.3h146.4L471.1,978c8,8,18.4,12,28.9,12c10.4,0,20.9-4,28.9-12l151.4-151.4h146.4c90.1,0,163.3-73.3,163.3-163.3v-490C990,83.3,916.7,10,826.7,10z M908.3,663.3c0,45-36.6,81.7-81.7,81.7H663.4c-0.7,0-1.4,0-2.1,0.1c-0.2,0-0.4,0-0.6,0c-0.5,0-0.9,0.1-1.4,0.1c-0.3,0-0.7,0.1-1,0.1c-0.3,0-0.6,0.1-1,0.1c-0.4,0.1-0.8,0.1-1.2,0.2c-0.3,0-0.5,0.1-0.8,0.1c-0.4,0.1-0.8,0.2-1.2,0.3c-0.2,0.1-0.5,0.1-0.7,0.2c-0.4,0.1-0.8,0.2-1.2,0.3c-0.2,0.1-0.5,0.1-0.7,0.2c-0.4,0.1-0.8,0.2-1.1,0.4c-0.3,0.1-0.5,0.2-0.8,0.3c-0.3,0.1-0.7,0.3-1,0.4c-0.3,0.1-0.6,0.2-0.9,0.3c-0.3,0.1-0.6,0.3-0.9,0.4s-0.6,0.3-0.9,0.4c-0.3,0.1-0.6,0.3-0.8,0.4c-0.3,0.2-0.6,0.3-1,0.5c-0.3,0.1-0.5,0.3-0.8,0.4c-0.3,0.2-0.6,0.4-1,0.6c-0.3,0.2-0.5,0.3-0.8,0.5c-0.3,0.2-0.6,0.4-0.9,0.6c-0.3,0.2-0.5,0.4-0.8,0.6c-0.3,0.2-0.5,0.4-0.8,0.6c-0.3,0.2-0.7,0.5-1,0.8c-0.2,0.2-0.4,0.3-0.6,0.5c-0.5,0.4-0.9,0.8-1.4,1.2c0,0-0.1,0.1-0.1,0.1c-0.6,0.5-1.1,1-1.6,1.5L500,891.4L365.6,757.1c-0.5-0.5-1.1-1-1.6-1.5c0,0-0.1-0.1-0.1-0.1c-0.5-0.4-0.9-0.8-1.4-1.2c-0.2-0.1-0.4-0.3-0.6-0.4c-0.3-0.3-0.7-0.5-1-0.8c-0.3-0.2-0.5-0.4-0.8-0.6c-0.3-0.2-0.5-0.4-0.8-0.6c-0.3-0.2-0.6-0.4-0.9-0.6c-0.3-0.2-0.5-0.3-0.8-0.5c-0.3-0.2-0.6-0.4-1-0.5c-0.3-0.1-0.5-0.3-0.8-0.4c-0.3-0.2-0.6-0.3-1-0.5c-0.3-0.1-0.6-0.3-0.8-0.4c-0.3-0.1-0.6-0.3-0.9-0.4c-0.3-0.1-0.6-0.3-0.9-0.4c-0.3-0.1-0.6-0.2-0.8-0.3c-0.3-0.1-0.7-0.3-1-0.4c-0.3-0.1-0.5-0.2-0.8-0.3c-0.4-0.1-0.8-0.3-1.1-0.4c-0.2-0.1-0.5-0.1-0.7-0.2c-0.4-0.1-0.8-0.2-1.2-0.3c-0.2-0.1-0.5-0.1-0.7-0.2c-0.4-0.1-0.8-0.2-1.2-0.3c-0.3-0.1-0.5-0.1-0.8-0.1c-0.4-0.1-0.8-0.1-1.2-0.2c-0.3,0-0.6-0.1-1-0.1c-0.3,0-0.7-0.1-1-0.1c-0.5,0-0.9-0.1-1.4-0.1c-0.2,0-0.4,0-0.6,0c-0.7,0-1.4-0.1-2.1-0.1H173.3c-45,0-81.7-36.6-81.7-81.7v-490c0-45,36.6-81.7,81.7-81.7h653.3c45,0,81.7,36.6,81.7,81.7V663.3z"/><path d="M745,214.2H255c-22.6,0-40.8,18.3-40.8,40.8c0,22.6,18.3,40.8,40.8,40.8h490c22.5,0,40.8-18.3,40.8-40.8C785.8,232.5,767.5,214.2,745,214.2z"/><path d="M255,459.2h285.8c22.5,0,40.8-18.3,40.8-40.8c0-22.6-18.3-40.8-40.8-40.8H255c-22.6,0-40.8,18.3-40.8,40.8C214.2,440.9,232.5,459.2,255,459.2z"/><path d="M663.3,540.8H255c-22.6,0-40.8,18.3-40.8,40.8c0,22.5,18.3,40.8,40.8,40.8h408.3c22.5,0,40.8-18.3,40.8-40.8C704.2,559.1,685.9,540.8,663.3,540.8z"/></g>
</svg>