<svg version="1.1" xmlns="http://www.w3.org/2000/svg" xmlns:xlink="http://www.w3.org/1999/xlink" x="0px" y="0px" viewBox="0 0 1000 1000" enable-background="new 0 0 1000 1000" xml:space="preserve">
<g><path d="M500,10C229.4,10,10,229.4,10,500c0,270.6,219.4,490,490,490c270.6,0,490-219.4,490-490C990,229.4,770.6,10,500,10z M500,913.4C271.7,913.4,86.6,728.3,86.6,500S271.7,86.6,500,86.6S913.4,271.7,913.4,500S728.3,913.4,500,913.4z"/><g><g><path d="M285.6,285.6v61.3h428.8v-61.3H285.6z M561.3,377.5H285.6v61.3h275.6V377.5z M438.8,469.4H285.6v61.3h153.1V469.4z M285.6,622.5h367.5v-61.3H285.6V622.5z M285.6,714.4h245v-61.3h-245V714.4z"/></g></g></g>
</svg>